<?xml version="1.0" encoding="utf-8"?>
<!-- Generator: Adobe Illustrator 26.5.0, SVG Export Plug-In . SVG Version: 6.00 Build 0)  -->
<svg version="1.1" id="Calque_1" xmlns="http://www.w3.org/2000/svg" xmlns:xlink="http://www.w3.org/1999/xlink" x="0px" y="0px"
	 viewBox="0 0 566.2 566.2" style="enable-background:new 0 0 566.2 566.2;" xml:space="preserve">
<style type="text/css">
	.st0{fill:#FFFFFF;}
</style>
<path class="st0" d="M137.3,207.6c19,0,37.9,0.1,56.9-0.1c3.2,0,4.4,1,5,4.1c12.4,63.2,25,126.3,37.5,189.4
	c1.9,9.7,3.9,19.4,5.7,29.1c0.4,2.3,1.4,3.3,3.8,3.3c24.3-0.1,48.6-0.1,72.9,0c2.4,0,3.4-1,3.8-3.3c5.1-26.2,10.4-52.4,15.5-78.5
	c5-25.5,10.1-50.9,15.1-76.4c4.1-20.9,8.3-41.7,12.4-62.5c1-5.1,1-5.1,6.2-5.1c32.1,0,64.3,0,96.4,0c5.8,0,11.6,0.1,17.4-0.1
	c2.9-0.1,3.8,1,3.8,3.8c-0.1,10.8,0.2,21.5-0.1,32.3c-1.2,35.2-25.7,65.4-59.9,73.9c-4.5,1.1-9,1.4-13.6,1.8c-2.4,0.2-2.9-0.8-2.5-3
	c2.9-14.2,5.7-28.4,8.5-42.6c0.4-2,1.8-2.9,3.5-3.8c6-3.1,10.9-7.5,14.1-13.6c1.6-3,1.2-3.8-2.3-3.9c-8.9-0.1-17.9,0.1-26.8-0.1
	c-3.1-0.1-4.5,1.1-5.1,4.2c-3.9,19.9-7.9,39.8-11.8,59.7c-4.3,21.7-8.5,43.4-12.8,65c-5.9,29.5-11.7,59-17.7,88.4
	c-2.1,10.2,0.2,8.6-10.2,8.6c-48.3,0.1-96.7,0-145,0.1c-3.3,0-4.5-0.9-5.2-4.2c-7.9-40.4-16-80.8-24-121.2
	c-6.4-32.3-12.9-64.7-19.3-97c-0.5-2.6-1.6-3.7-4.3-3.7c-9.4,0.1-18.9,0.1-28.3,0c-3.2,0-3.1,1.6-1.9,3.7
	c3.5,6.2,8.4,10.9,14.8,13.8c1.9,0.9,2.8,2,3.2,3.9c2.7,13.8,5.5,27.5,8.2,41.2c0.8,4.2,0.6,4.5-3.6,4.2
	c-39.6-2.8-71.3-36.3-72.1-76.4c-0.2-10.4,0-20.8-0.2-31.2c-0.1-3.2,1.1-4.2,4.2-4.2C98.9,207.6,118.1,207.6,137.3,207.6
	L137.3,207.6L137.3,207.6z"/>
<path class="st0" d="M283.3,162.3c-37.2,0-74.4-0.1-111.6,0.1c-14.2,0.1-26.6-4-36.6-14.5c-6.7-7-10.1-15.5-11.9-24.8
	c-1.6-8.3-3.2-16.6-4.9-24.9c-0.6-2.7-0.3-4,3-3.9c13.5,0.1,27.1,0.1,40.6,0c3.1,0,4.6,1.1,4.9,4.3c0.3,3.1,1.1,6.2,1.9,9.2
	c1.4,6,5.3,9.3,11.6,9.5c4.8,0.2,9.7,0.1,14.5,0.1c62.5,0,124.9,0,187.4-0.1c3.3,0,6.5,0,9.4-1.9c2.5-1.7,4.3-3.9,4.9-6.8
	c0.8-3.8,1.7-7.5,2.4-11.3c0.4-2,1.3-2.9,3.4-2.9c14.1,0,28.3,0.1,42.4,0c2.3,0,3.1,0.7,2.6,3c-2.8,12.1-3.5,24.7-8.2,36.3
	c-6.5,16.4-19,25.7-36.5,28.1c-3.6,0.5-7.2,0.5-10.9,0.5C355.5,162.3,319.4,162.3,283.3,162.3L283.3,162.3z"/>
</svg>
