<?xml version="1.0" encoding="UTF-8"?>
<svg id="Calque_1" data-name="Calque 1" xmlns="http://www.w3.org/2000/svg" viewBox="0 0 566.2 566.2">
  <path d="M137.31,207.65c18.97,0,37.94,.07,56.91-.07,3.19-.02,4.4,1.04,5.01,4.13,12.45,63.15,24.99,126.28,37.51,189.42,1.93,9.71,3.88,19.42,5.67,29.15,.43,2.34,1.38,3.28,3.79,3.27,24.29-.07,48.57-.08,72.86-.04,2.43,0,3.39-1,3.84-3.29,5.14-26.19,10.35-52.36,15.53-78.54,5.04-25.47,10.06-50.94,15.1-76.4,4.13-20.85,8.29-41.68,12.41-62.53,1-5.06,.95-5.1,6.25-5.1,32.14-.01,64.28,0,96.42-.01,5.8,0,11.6,.1,17.4-.07,2.88-.08,3.83,1.04,3.8,3.82-.1,10.75,.24,21.52-.13,32.26-1.2,35.24-25.74,65.39-59.94,73.91-4.46,1.11-9.05,1.44-13.63,1.8-2.41,.19-2.94-.78-2.49-3.01,2.88-14.2,5.71-28.41,8.51-42.63,.4-2.03,1.75-2.94,3.46-3.82,6.04-3.11,10.88-7.53,14.15-13.57,1.64-3.03,1.21-3.84-2.26-3.86-8.94-.05-17.88,.08-26.82-.09-3.15-.06-4.49,1.11-5.09,4.17-3.86,19.92-7.88,39.8-11.82,59.7-4.29,21.68-8.52,43.37-12.82,65.04-5.85,29.49-11.68,58.99-17.68,88.45-2.08,10.21,.19,8.61-10.19,8.63-48.33,.06-96.66-.02-144.98,.07-3.27,0-4.52-.86-5.17-4.2-7.9-40.41-15.98-80.78-24.02-121.16-6.44-32.33-12.93-64.66-19.31-97-.52-2.63-1.63-3.7-4.32-3.68-9.42,.08-18.85,.05-28.27,0-3.18-.02-3.14,1.57-1.94,3.69,3.48,6.17,8.4,10.88,14.84,13.83,1.86,.85,2.82,1.95,3.21,3.93,2.68,13.75,5.47,27.48,8.16,41.23,.83,4.23,.56,4.45-3.59,4.16-39.62-2.77-71.29-36.28-72.06-76.35-.2-10.39,.01-20.78-.16-31.17-.05-3.2,1.13-4.18,4.24-4.17,19.21,.1,38.42,.05,57.63,.05v.04Z"/>
  <path d="M283.27,162.27c-37.21,0-74.42-.08-111.62,.05-14.21,.05-26.59-4.02-36.57-14.46-6.66-6.97-10.1-15.46-11.9-24.76-1.61-8.29-3.2-16.59-4.91-24.86-.55-2.66-.29-3.97,2.99-3.93,13.53,.14,27.06,.08,40.59-.04,3.13-.03,4.6,1.05,4.92,4.28,.31,3.11,1.12,6.18,1.85,9.22,1.45,6.01,5.33,9.26,11.58,9.52,4.82,.2,9.66,.13,14.49,.13,62.46,0,124.91-.02,187.37-.05,3.26,0,6.49,.04,9.41-1.92,2.54-1.7,4.27-3.86,4.93-6.84,.83-3.77,1.72-7.54,2.4-11.34,.36-2.02,1.29-2.95,3.36-2.94,14.13,.04,28.27,.07,42.4,.01,2.29,0,3.12,.74,2.61,2.99-2.77,12.11-3.54,24.73-8.17,36.34-6.54,16.39-19.02,25.7-36.51,28.1-3.57,.49-7.23,.49-10.85,.49-36.12,.03-72.24,.02-108.36,.02Z"/>
</svg>